<svg width="60" height="60" viewBox="0 0 60 60" version="1.1" xmlns="http://www.w3.org/2000/svg" xmlns:xlink="http://www.w3.org/1999/xlink">
<title>arrow up</title>
<desc>Created using Figma</desc>
<g id="Canvas" transform="matrix(2 0 0 2 -12644 -118)">
<g id="arrow up">
<use xlink:href="#path0_fill" transform="matrix(-1 1.22465e-16 -1.22465e-16 -1 6352 89)" fill="#FFFFFF"/>
</g>
</g>
<defs>
<path id="path0_fill" fill-rule="evenodd" d="M 15 30C 12.0333 30 9.13315 29.1203 6.66642 27.472C 4.19968 25.8238 2.27714 23.4811 1.14182 20.7402C 0.00650748 17.9994 -0.290533 14.9833 0.288245 12.0736C 0.867023 9.16392 2.29568 6.49118 4.39347 4.39339C 6.49126 2.29561 9.16396 0.867023 12.0737 0.288245C 14.9834 -0.290533 17.9993 0.00650748 20.7402 1.14182C 23.4811 2.27714 25.8239 4.19972 27.4721 6.66646C 29.1203 9.13319 30 12.0333 30 15C 30 18.9783 28.4196 22.7936 25.6065 25.6066C 22.7935 28.4197 18.9783 30 15 30ZM 15 2.50001C 12.5277 2.50001 10.111 3.23312 8.05542 4.60663C 5.99981 5.98015 4.39764 7.93237 3.45154 10.2165C 2.50545 12.5005 2.25786 15.0139 2.74018 17.4386C 3.22249 19.8634 4.41304 22.0907 6.1612 23.8388C 7.90935 25.587 10.1366 26.7775 12.5613 27.2598C 14.9861 27.7421 17.4994 27.4946 19.7835 26.5485C 22.0676 25.6024 24.0199 24.0002 25.3934 21.9446C 26.7669 19.889 27.5 17.4723 27.5 15C 27.5 11.6848 26.183 8.50537 23.8388 6.16116C 21.4946 3.81696 18.3152 2.50001 15 2.50001ZM 19.4749 13.5638L 16.25 11.385L 16.25 21.25C 16.25 21.5815 16.1184 21.8994 15.8839 22.1339C 15.6495 22.3683 15.3315 22.5 15 22.5C 14.6685 22.5 14.3505 22.3683 14.1161 22.1339C 13.8816 21.8994 13.75 21.5815 13.75 21.25L 13.75 11.385L 10.5251 13.5638C 10.3891 13.6536 10.2348 13.7119 10.0734 13.7347C 9.91204 13.7576 9.74769 13.7442 9.59214 13.6956C 9.43659 13.647 9.29374 13.5645 9.17405 13.4539C 9.05435 13.3433 8.96072 13.2075 8.9 13.0563C 8.73929 12.7388 8.69508 12.375 8.77503 12.0282C 8.85497 11.6815 9.05397 11.3738 9.33747 11.1588L 14.0375 7.98501C 14.0555 7.96542 14.0767 7.94895 14.1 7.93625C 14.1865 7.8276 14.2925 7.73603 14.4125 7.66625C 14.5541 7.58543 14.7123 7.53839 14.875 7.52877C 14.8833 7.53039 14.8918 7.53039 14.9001 7.52877L 14.9374 7.52125C 14.9624 7.52125 14.975 7.50874 15 7.50874C 15.0212 7.51049 15.0423 7.5147 15.0626 7.52125L 15.0999 7.52877C 15.1122 7.53247 15.1248 7.53496 15.1375 7.53624C 15.2485 7.54094 15.3582 7.56287 15.4625 7.60125C 15.5 7.62 15.5375 7.64876 15.5875 7.67251C 15.6717 7.71842 15.7513 7.77242 15.825 7.83375C 15.8625 7.87125 15.8875 7.925 15.925 7.96875L 20.6625 11.1675C 20.946 11.3825 21.145 11.6903 21.225 12.037C 21.3049 12.3838 21.2607 12.7475 21.1 13.065C 21.0384 13.2155 20.9441 13.3504 20.824 13.4601C 20.7039 13.5697 20.561 13.6514 20.4056 13.6991C 20.2501 13.7468 20.086 13.7594 19.9251 13.736C 19.7642 13.7126 19.6104 13.6538 19.4749 13.5638Z"/>
</defs>
</svg>
